<svg width="14" height="14" viewBox="0 0 14 14" fill="none" xmlns="http://www.w3.org/2000/svg">
<path fill-rule="evenodd" clip-rule="evenodd" d="M7 14C3.1325 14 0 10.8675 0 7C0 3.1325 3.1325 0 7 0C10.8675 0 14 3.1325 14 7C14 10.8675 10.8675 14 7 14ZM5.60875 10.3425C5.8625 10.3425 6.1075 10.2288 6.27375 10.0275L10.29 5.27625C10.4213 5.1275 10.4913 4.92625 10.4913 4.725C10.4913 4.4625 10.3863 4.20875 10.1763 4.0425C10.01 3.91125 9.82625 3.85 9.6075 3.85C9.35375 3.85 9.1175 3.955 8.95125 4.15625L5.67875 8.04125L4.9525 7.0175C4.87224 6.90415 4.76603 6.81165 4.64273 6.74772C4.51944 6.68379 4.38264 6.65028 4.24375 6.65C4.06 6.65 3.89375 6.7025 3.745 6.79875C3.5 6.95625 3.36875 7.20125 3.36875 7.5075C3.36875 7.69125 3.42125 7.86625 3.52625 8.02375L4.8825 9.9575C5.0575 10.2025 5.31125 10.3425 5.60875 10.3425Z" fill="#1D1C1D"/>
</svg>
