<svg width="16" height="17" viewBox="0 0 16 17" fill="none" xmlns="http://www.w3.org/2000/svg">
<path fill-rule="evenodd" clip-rule="evenodd" d="M8 16.9169C3.58 16.9169 0 13.3365 0 8.91599C0 4.4955 3.58 0.9151 8 0.9151C12.42 0.9151 16 4.4955 16 8.91599C16 13.3365 12.42 16.9169 8 16.9169ZM6.41 12.7364C6.7 12.7364 6.98 12.6064 7.17 12.3764L11.76 6.94577C11.91 6.77575 11.99 6.54572 11.99 6.3157C11.99 6.01567 11.87 5.72563 11.63 5.53561C11.44 5.3856 11.23 5.31559 10.98 5.31559C10.69 5.31559 10.42 5.4356 10.23 5.66563L6.49 10.1061L5.66 8.93599C5.56827 8.80644 5.44689 8.70071 5.30598 8.62764C5.16507 8.55456 5.00873 8.51627 4.85 8.51594C4.64 8.51594 4.45 8.57595 4.28 8.68596C4 8.86598 3.85 9.14601 3.85 9.49605C3.85 9.70607 3.91 9.9061 4.03 10.0861L5.58 12.2964C5.78 12.5764 6.07 12.7364 6.41 12.7364Z" fill="#1D1C1D"/>
</svg>
