<svg width="16" height="17" viewBox="0 0 16 17" fill="none" xmlns="http://www.w3.org/2000/svg">
<path fill-rule="evenodd" clip-rule="evenodd" d="M8 16.0483C3.58 16.0483 0 12.4679 0 8.04743C0 3.62694 3.58 0.0465393 8 0.0465393C12.42 0.0465393 16 3.62694 16 8.04743C16 12.4679 12.42 16.0483 8 16.0483ZM6.41 11.8678C6.7 11.8678 6.98 11.7378 7.17 11.5078L11.76 6.07721C11.91 5.90719 11.99 5.67716 11.99 5.44714C11.99 5.1471 11.87 4.85707 11.63 4.66705C11.44 4.51703 11.23 4.44703 10.98 4.44703C10.69 4.44703 10.42 4.56704 10.23 4.79707L6.49 9.23756L5.66 8.06743C5.56827 7.93788 5.44689 7.83215 5.30598 7.75908C5.16507 7.686 5.00873 7.64771 4.85 7.64738C4.64 7.64738 4.45 7.70739 4.28 7.8174C4 7.99742 3.85 8.27745 3.85 8.62749C3.85 8.83751 3.91 9.03754 4.03 9.21756L5.58 11.4278C5.78 11.7078 6.07 11.8678 6.41 11.8678Z" fill="#1D1C1D"/>
</svg>
